<svg width="24" height="24" viewBox="0 0 24 24" fill="none" xmlns="http://www.w3.org/2000/svg">
<path fill-rule="evenodd" clip-rule="evenodd" d="M11.1094 5.22798C11.3928 5.53127 11.3918 6.02195 11.1072 6.32394L6.48795 11.2249H19.2727L19.3714 11.232C19.7264 11.2833 20 11.6076 20 11.9999C20 12.4279 19.6744 12.7749 19.2727 12.7749H6.48945L11.1072 17.6757L11.1778 17.7625C11.3896 18.0654 11.367 18.496 11.1093 18.7717C10.8259 19.075 10.3654 19.076 10.0808 18.774L4.23131 12.5665C4.0952 12.4311 4.00792 12.2407 4.00068 12.0286C3.99333 11.8201 4.06453 11.609 4.21428 11.4501L10.0809 5.22562L10.1626 5.15077C10.4478 4.92632 10.8517 4.95226 11.1094 5.22798Z" fill="#303030"/>
</svg>
